# xmcd CD database file
#
# Track frame offsets:
#	187
#	38392
#	75514
#	103952
#	141984
#	177349
#	219292
#
# Disc length: 3366 seconds
#
# Revision: 2
# Processed by: cddbd v1.5.2PL0 Copyright (c) Steve Scherf et al.
# Submitted via: CDex 1.50
#
DISCID=560d2407
DTITLE=Kenny Barron - Sphere
DYEAR=1998
DGENRE=Jazz
TTITLE0=We See
TTITLE1=Isfahan
TTITLE2=Uncle Bubba
TTITLE3=Hornin' in
TTITLE4=Buck And Wing
TTITLE5=Twilight
TTITLE6=The Surrey With The Fringe On Top
EXTD=Kenny Barron - piano\nGary Bartz - alto saxophone (soprano saxophone on 7]\nBen Riley - drums\nBuster Williams - bass YEAR: 1998
EXTT0=Thelonious Monk
EXTT1=Billy Strayhorn
EXTT2=Gary Bartz
EXTT3=Thelonious Monk
EXTT4=Gary Bartz
EXTT5=Kenny Barron
EXTT6=Oscar Hammerstein and Richard Rodgers
PLAYORDER=
